<svg 
 xmlns="http://www.w3.org/2000/svg"
 xmlns:xlink="http://www.w3.org/1999/xlink"
 width="18px" height="18px">
<path fill-rule="evenodd"  fill="rgb(255, 255, 255)"
 d="M7.165,11.654 C4.742,11.654 2.778,9.689 2.778,7.266 C2.778,4.844 4.742,2.880 7.165,2.880 C9.588,2.880 11.552,4.844 11.552,7.266 C11.552,9.689 9.588,11.654 7.165,11.654 M7.165,0.930 C3.665,0.930 0.828,3.767 0.828,7.266 C0.828,10.766 3.665,13.603 7.165,13.603 C8.739,13.603 10.175,13.026 11.283,12.076 L11.553,12.343 L11.553,13.116 L16.425,17.981 L17.879,16.527 L13.016,11.654 L12.242,11.654 L11.973,11.386 C12.923,10.278 13.501,8.841 13.501,7.266 C13.501,3.767 10.664,0.930 7.165,0.930 "/>
</svg>